<svg width="138" height="30" viewBox="0 0 138 30" fill="none" xmlns="http://www.w3.org/2000/svg">
<g clip-path="url(#clip0_1_2)">
<path d="M42.1221 18.5723C42.1221 19.6465 41.6655 20.5205 40.7524 21.1943C39.8442 21.8633 38.6089 22.1978 37.0464 22.1978C36.1431 22.1978 35.3545 22.1196 34.6807 21.9634C34.0117 21.8022 33.3843 21.5996 32.7983 21.3555V18.7407H33.106C33.687 19.2046 34.3364 19.561 35.0542 19.8101C35.7769 20.0591 36.4702 20.1836 37.1343 20.1836C37.3052 20.1836 37.5298 20.1689 37.8081 20.1396C38.0864 20.1104 38.3135 20.0615 38.4893 19.9932C38.7041 19.9053 38.8799 19.7954 39.0166 19.6636C39.1582 19.5317 39.229 19.3364 39.229 19.0776C39.229 18.8384 39.1265 18.6333 38.9214 18.4624C38.7212 18.2866 38.4258 18.1523 38.0352 18.0596C37.625 17.9619 37.1904 17.8716 36.7314 17.7886C36.2773 17.7007 35.8501 17.5908 35.4497 17.459C34.5317 17.1611 33.8701 16.7583 33.4648 16.2505C33.0645 15.7378 32.8643 15.103 32.8643 14.3462C32.8643 13.3306 33.3184 12.5029 34.2266 11.8633C35.1396 11.2188 36.3115 10.8965 37.7422 10.8965C38.46 10.8965 39.168 10.9673 39.8662 11.1089C40.5693 11.2456 41.1772 11.4189 41.6899 11.6289V14.1411H41.3896C40.9502 13.7896 40.4106 13.4966 39.771 13.2622C39.1362 13.0229 38.4868 12.9033 37.8228 12.9033C37.5884 12.9033 37.354 12.9204 37.1196 12.9546C36.8901 12.9839 36.668 13.0425 36.4531 13.1304C36.2627 13.2036 36.0991 13.3159 35.9624 13.4673C35.8257 13.6138 35.7573 13.7822 35.7573 13.9727C35.7573 14.2607 35.8672 14.4829 36.0869 14.6392C36.3066 14.7905 36.7217 14.9297 37.332 15.0566C37.7324 15.1396 38.1157 15.2202 38.4819 15.2983C38.853 15.3765 39.251 15.4839 39.6758 15.6206C40.5107 15.894 41.126 16.2676 41.5215 16.7412C41.9219 17.21 42.1221 17.8203 42.1221 18.5723ZM49.318 21.9268C49.0348 22 48.7345 22.0562 48.4171 22.0952C48.0997 22.1392 47.7115 22.1611 47.2525 22.1611C46.2271 22.1611 45.463 21.9536 44.9601 21.5386C44.462 21.1235 44.213 20.4131 44.213 19.4072V15.562H43.129V13.7749H44.213V11.4238H46.8497V13.7749H49.318V15.562H46.8497V18.4771C46.8497 18.7651 46.8521 19.0166 46.857 19.2314C46.8619 19.4463 46.901 19.6392 46.9742 19.8101C47.0426 19.981 47.1622 20.1177 47.3331 20.2202C47.5089 20.3179 47.7628 20.3667 48.0948 20.3667C48.2315 20.3667 48.4098 20.3374 48.6295 20.2788C48.8541 20.2202 49.0104 20.1665 49.0982 20.1177H49.318V21.9268ZM59.4582 17.8911C59.4582 19.2437 59.0627 20.3105 58.2717 21.0918C57.4855 21.8682 56.3796 22.2563 54.9538 22.2563C53.528 22.2563 52.4196 21.8682 51.6286 21.0918C50.8425 20.3105 50.4494 19.2437 50.4494 17.8911C50.4494 16.5288 50.8449 15.4595 51.6359 14.6831C52.4318 13.9067 53.5378 13.5186 54.9538 13.5186C56.3894 13.5186 57.4978 13.9092 58.279 14.6904C59.0651 15.4717 59.4582 16.5386 59.4582 17.8911ZM56.2136 19.8906C56.3845 19.6807 56.5114 19.4292 56.5944 19.1362C56.6823 18.8384 56.7263 18.4282 56.7263 17.9058C56.7263 17.4224 56.6823 17.0171 56.5944 16.6899C56.5065 16.3628 56.3845 16.1016 56.2282 15.9062C56.072 15.7061 55.884 15.5645 55.6643 15.4814C55.4445 15.3984 55.2077 15.3569 54.9538 15.3569C54.6999 15.3569 54.4729 15.3911 54.2727 15.4595C54.0773 15.5278 53.8894 15.6646 53.7087 15.8696C53.5476 16.0601 53.4182 16.3213 53.3205 16.6533C53.2277 16.9854 53.1813 17.4028 53.1813 17.9058C53.1813 18.355 53.2229 18.7456 53.3059 19.0776C53.3889 19.4048 53.5109 19.6685 53.6721 19.8687C53.8283 20.0591 54.0139 20.1982 54.2287 20.2861C54.4484 20.374 54.6975 20.418 54.9758 20.418C55.215 20.418 55.4421 20.3789 55.6569 20.3008C55.8767 20.2178 56.0622 20.0811 56.2136 19.8906ZM65.7825 22.2197C65.0647 22.2197 64.408 22.1343 63.8123 21.9634C63.2215 21.7925 62.7063 21.5288 62.2669 21.1724C61.8323 20.8159 61.4954 20.3667 61.2562 19.8247C61.0169 19.2827 60.8973 18.6479 60.8973 17.9204C60.8973 17.1538 61.0242 16.4922 61.2781 15.9355C61.5369 15.3789 61.8958 14.9175 62.3548 14.5513C62.7991 14.2046 63.3118 13.9507 63.8929 13.7896C64.4739 13.6284 65.077 13.5479 65.702 13.5479C66.2635 13.5479 66.7811 13.6089 67.2547 13.731C67.7283 13.853 68.1702 14.0117 68.5804 14.207V16.4556H68.2068C68.1043 16.3677 67.9798 16.2651 67.8333 16.1479C67.6917 16.0308 67.5159 15.916 67.306 15.8037C67.1058 15.6963 66.886 15.6084 66.6468 15.54C66.4075 15.4668 66.1292 15.4302 65.8118 15.4302C65.1087 15.4302 64.5667 15.6548 64.1858 16.104C63.8099 16.5483 63.6219 17.1538 63.6219 17.9204C63.6219 18.7114 63.8147 19.312 64.2005 19.7222C64.5911 20.1323 65.1429 20.3374 65.8558 20.3374C66.1878 20.3374 66.4856 20.3008 66.7493 20.2275C67.0179 20.1494 67.24 20.0591 67.4158 19.9565C67.5818 19.8589 67.7283 19.7563 67.8553 19.6489C67.9822 19.5415 68.0994 19.4365 68.2068 19.334H68.5804V21.5825C68.1653 21.7778 67.7308 21.9316 67.2767 22.0439C66.8274 22.1611 66.3294 22.2197 65.7825 22.2197ZM79.2113 22H76.1425L73.8354 18.4185L73.1176 19.29V22H70.4809V10.6035H73.1176V17.4077L75.9594 13.7749H78.9989L76.0399 17.3198L79.2113 22ZM92.2739 22H89.4761V14.6978L87.4546 19.4365H85.5137L83.4922 14.6978V22H80.8408V11.0942H84.1074L86.561 16.5654L89.0073 11.0942H92.2739V22ZM100.048 19.854V18.1401C99.692 18.1694 99.3063 18.2109 98.8912 18.2646C98.4762 18.3135 98.1612 18.3721 97.9464 18.4404C97.6827 18.5234 97.4801 18.6455 97.3385 18.8066C97.2018 18.9629 97.1334 19.1704 97.1334 19.4292C97.1334 19.6001 97.148 19.7393 97.1773 19.8467C97.2066 19.9541 97.2799 20.0566 97.3971 20.1543C97.5094 20.252 97.6437 20.3252 97.7999 20.374C97.9562 20.418 98.2003 20.4399 98.5323 20.4399C98.796 20.4399 99.0621 20.3862 99.3307 20.2788C99.6041 20.1714 99.8434 20.0298 100.048 19.854ZM100.048 21.1284C99.9068 21.2358 99.7311 21.3652 99.5211 21.5166C99.3111 21.668 99.1134 21.7876 98.9278 21.8755C98.669 21.9927 98.4005 22.0781 98.1222 22.1318C97.8438 22.1904 97.5387 22.2197 97.2066 22.2197C96.4254 22.2197 95.7711 21.978 95.2438 21.4946C94.7164 21.0112 94.4527 20.3936 94.4527 19.6416C94.4527 19.041 94.587 18.5503 94.8556 18.1694C95.1241 17.7886 95.505 17.4883 95.9981 17.2686C96.4864 17.0488 97.0919 16.8926 97.8146 16.7998C98.5372 16.707 99.2867 16.6387 100.063 16.5947V16.5508C100.063 16.0967 99.8775 15.7842 99.5064 15.6133C99.1354 15.4375 98.5885 15.3496 97.8658 15.3496C97.4313 15.3496 96.9674 15.4277 96.4742 15.584C95.9811 15.7354 95.6271 15.8525 95.4122 15.9355H95.1705V13.9507C95.4488 13.8774 95.9005 13.792 96.5255 13.6943C97.1554 13.5918 97.7853 13.5405 98.4151 13.5405C99.9142 13.5405 100.996 13.7725 101.66 14.2363C102.329 14.6953 102.663 15.418 102.663 16.4043V22H100.048V21.1284ZM110.496 21.9268C110.213 22 109.913 22.0562 109.595 22.0952C109.278 22.1392 108.89 22.1611 108.431 22.1611C107.405 22.1611 106.641 21.9536 106.138 21.5386C105.64 21.1235 105.391 20.4131 105.391 19.4072V15.562H104.307V13.7749H105.391V11.4238H108.028V13.7749H110.496V15.562H108.028V18.4771C108.028 18.7651 108.03 19.0166 108.035 19.2314C108.04 19.4463 108.079 19.6392 108.153 19.8101C108.221 19.981 108.341 20.1177 108.511 20.2202C108.687 20.3179 108.941 20.3667 109.273 20.3667C109.41 20.3667 109.588 20.3374 109.808 20.2788C110.032 20.2202 110.189 20.1665 110.277 20.1177H110.496V21.9268ZM120.329 18.3745H114.294C114.333 19.019 114.577 19.5122 115.026 19.854C115.48 20.1958 116.147 20.3667 117.026 20.3667C117.582 20.3667 118.122 20.2666 118.644 20.0664C119.167 19.8662 119.579 19.6514 119.882 19.4219H120.175V21.5386C119.579 21.7778 119.018 21.9512 118.491 22.0586C117.963 22.166 117.38 22.2197 116.74 22.2197C115.09 22.2197 113.825 21.8486 112.946 21.1064C112.067 20.3643 111.628 19.3071 111.628 17.9351C111.628 16.5776 112.043 15.5034 112.873 14.7124C113.708 13.9165 114.85 13.5186 116.301 13.5186C117.638 13.5186 118.644 13.8579 119.318 14.5366C119.992 15.2104 120.329 16.1821 120.329 17.4517V18.3745ZM117.707 16.8291C117.692 16.2773 117.555 15.8623 117.297 15.584C117.038 15.3057 116.635 15.1665 116.088 15.1665C115.58 15.1665 115.163 15.2983 114.836 15.562C114.509 15.8257 114.325 16.248 114.286 16.8291H117.707ZM129.488 19.3926C129.488 20.2422 129.107 20.9282 128.345 21.4507C127.583 21.9683 126.541 22.2271 125.218 22.2271C124.485 22.2271 123.821 22.1587 123.225 22.022C122.63 21.8853 122.151 21.7339 121.79 21.5679V19.3999H122.032C122.163 19.4927 122.315 19.5952 122.486 19.7075C122.662 19.8149 122.908 19.9321 123.225 20.0591C123.499 20.1714 123.809 20.269 124.156 20.3521C124.502 20.4302 124.873 20.4692 125.269 20.4692C125.787 20.4692 126.17 20.4131 126.419 20.3008C126.668 20.1836 126.792 20.0127 126.792 19.7881C126.792 19.5879 126.719 19.4438 126.573 19.356C126.426 19.2632 126.148 19.1753 125.738 19.0923C125.542 19.0483 125.276 19.002 124.939 18.9531C124.607 18.8994 124.305 18.8359 124.031 18.7627C123.284 18.5674 122.73 18.2646 122.369 17.8545C122.007 17.4395 121.827 16.9243 121.827 16.3091C121.827 15.5181 122.2 14.8613 122.947 14.3389C123.699 13.8115 124.725 13.5479 126.023 13.5479C126.639 13.5479 127.227 13.6113 127.788 13.7383C128.355 13.8604 128.797 13.9922 129.114 14.1338V16.2139H128.887C128.496 15.9453 128.05 15.728 127.547 15.562C127.049 15.3911 126.543 15.3057 126.031 15.3057C125.606 15.3057 125.247 15.3643 124.954 15.4814C124.666 15.5986 124.522 15.7646 124.522 15.9795C124.522 16.1748 124.588 16.3237 124.72 16.4263C124.851 16.5288 125.162 16.6313 125.65 16.7339C125.918 16.7876 126.206 16.8413 126.514 16.895C126.827 16.9438 127.139 17.0073 127.452 17.0854C128.145 17.2661 128.658 17.5518 128.99 17.9424C129.322 18.3281 129.488 18.8115 129.488 19.3926Z" fill="white"/>
<path d="M29.7231 8.70898L28.406 12.9707L27.5652 12.1805L23.1244 16.1318L19.9363 18.9683L17.3297 21.2873L14.8752 18.9683L13.7182 17.8747L12.2861 16.5207L11.8569 16.1158L9.50577 13.893L8.6024 14.7154L8.29999 14.9901L6.86789 16.296L5.43187 17.6035L3.95295 18.9504L3.93341 18.9683L1.81648 20.8948L0 22.5503L2.89155 18.9683L6.86789 14.0393L8.29999 12.2661L9.53893 10.7301L12.2861 13.3275L13.4606 14.4389L13.7182 14.6815L17.3824 18.1423L17.7062 17.8533L19.1384 16.5796L19.7744 16.0141L21.626 14.3658L23.1244 13.0332L25.8716 10.5892L25.0287 9.79892L29.7231 8.70898Z" fill="#2DFF34"/>
<path d="M6.86789 8.70898V14.0393L2.89155 18.9683H2.87984V8.70898H6.86789Z" fill="#FFCE5F"/>
<path d="M28.8255 16.0142C28.8255 23.726 21.9655 30.0001 13.5289 30.0001C9.22479 30.0001 5.22111 28.3464 2.3901 25.5992C1.83208 25.0587 1.32088 24.4771 0.860428 23.8563L2.61837 22.2561L5.44551 19.6855L6.23181 18.9684L6.86787 18.3904L8.29997 17.0846L8.61604 16.7974L9.36332 16.1159L9.48427 16.0035L9.48623 16.0053L9.55255 15.9447L12.286 18.5278L13.4742 19.6517L17.3941 23.3568L19.786 21.2269L21.6396 19.5803L22.3264 18.9684L23.1243 18.2584L25.8832 15.802L17.3432 26.5019L11.8684 21.3303L9.51739 19.1075L8.616 19.9282L5.44547 22.8163L4.11287 24.0311C6.49517 26.3699 9.88422 27.7791 13.5289 27.7791C20.6251 27.7791 26.3964 22.5024 26.3964 16.0143L28.8255 16.0142Z" fill="#00B7FF"/>
<path d="M17.7061 3.08618V17.8534L17.3823 18.1424L13.7182 14.6816V3.08618H17.7061Z" fill="#FFCE5F"/>
<path d="M12.2861 5.60327V13.3276L9.53895 10.7302L8.30001 12.2661V5.60327H12.2861Z" fill="#FFCE5F"/>
<path d="M23.1243 0V13.0333L21.6259 14.3658L19.7743 16.0142L19.1383 16.5797V0H23.1243Z" fill="#FFCE5F"/>
</g>
<defs>
<clipPath id="clip0_1_2">
<rect width="138" height="30" fill="white"/>
</clipPath>
</defs>
</svg>
